<?xml version="1.0" encoding="UTF-8"?>
<svg xmlns="http://www.w3.org/2000/svg" xmlns:xlink="http://www.w3.org/1999/xlink" width="32px" height="32px" viewBox="0 0 32 32" version="1.1">
<g id="surface1">
<path style=" stroke:none;fill-rule:nonzero;fill:rgb(92.54902%,92.54902%,92.54902%);fill-opacity:1;" d="M 2.558594 32 L 19.398438 32 C 26.039062 32 29.441406 28.914062 29.441406 23.039062 L 29.441406 22.949219 C 29.441406 18.582031 27.277344 15.929688 23.113281 15.175781 L 23.113281 14.765625 C 26.601562 14.078125 28.425781 11.75 28.425781 7.953125 L 28.425781 7.839844 C 28.425781 2.675781 25.253906 0 19.039062 0 L 2.558594 0 Z M 9.203125 13.097656 L 9.203125 4.527344 L 17.058594 4.527344 C 20.230469 4.527344 21.808594 5.941406 21.808594 8.730469 L 21.808594 8.824219 C 21.808594 11.65625 20.230469 13.097656 17.058594 13.097656 Z M 9.203125 27.453125 L 9.203125 17.257812 L 17.261719 17.257812 C 20.75 17.257812 22.484375 18.949219 22.484375 22.261719 L 22.484375 22.355469 C 22.484375 25.738281 20.75 27.453125 17.261719 27.453125 Z M 9.203125 27.453125 "/>
</g>
</svg>
